<svg width="29" height="30" viewBox="0 0 29 30" fill="none" xmlns="http://www.w3.org/2000/svg">
    <mask id="mask0" mask-type="alpha" maskUnits="userSpaceOnUse" x="0" y="0" width="29" height="30">
        <path fill-rule="evenodd" clip-rule="evenodd" d="M0 0.449829H28.3256V29.9998H0V0.449829Z" fill="white"/>
    </mask>
    <g mask="url(#mask0)">
        <path fill-rule="evenodd" clip-rule="evenodd" d="M19.7377 9.53283L14.2667 12.7768L14.1897 12.8218L14.1127 12.7768L8.51169 9.47983L8.23569 9.31683L8.53669 9.20583C9.95869 8.68483 11.9687 7.80083 13.0097 6.14283C13.1197 5.96783 13.1737 5.76583 13.1647 5.55883C13.1567 5.38583 13.2017 4.60183 13.5537 4.22583C13.6427 4.13083 13.8017 4.00283 14.1557 3.99483C14.5207 4.00283 14.6787 4.12783 14.7677 4.22083C15.1077 4.57983 15.1667 5.32583 15.1607 5.55883C15.1497 5.75483 15.1937 5.93383 15.2947 6.10883C16.0717 7.46183 17.5167 8.49283 19.7107 9.25883L20.0177 9.36683L19.7377 9.53283ZM28.0287 14.5658L26.5827 13.1198C25.6397 12.1768 24.3857 11.6538 23.0517 11.6458L22.8637 11.6438L22.9047 11.4608C23.0027 11.0238 23.1127 10.5778 23.2317 10.1368C23.3177 9.81683 23.3697 9.42983 23.3697 9.10183C23.3697 8.76783 23.2047 8.30483 22.4187 7.99683C22.2027 7.91183 21.9287 7.82883 21.5917 7.72783L21.1947 7.60883L21.5747 7.44383L22.5567 7.01583C23.9037 6.42983 25.0437 5.40383 25.7677 4.12583L26.7947 2.31383C27.0707 1.82683 26.8987 1.20683 26.4117 0.930829C26.2597 0.844829 26.0867 0.798829 25.9127 0.798829C25.5477 0.798829 25.2087 0.995829 25.0297 1.31383L24.0027 3.12583C23.4937 4.02283 22.6927 4.74383 21.7467 5.15583L18.6477 6.50483L18.5757 6.53583L18.5087 6.49483C17.9467 6.15283 17.5097 5.76383 17.2097 5.34183L17.1847 5.30583L17.1817 5.26183C17.1627 4.94783 17.1027 4.46683 16.9237 3.96783L16.8977 3.89583L16.9397 3.83283C17.0317 3.69383 17.8997 2.47783 19.9647 2.47783C20.5237 2.47783 20.9787 2.02283 20.9787 1.46383C20.9787 0.904829 20.5237 0.449829 19.9647 0.449829C17.6417 0.449829 16.2607 1.56183 15.6447 2.22483L15.5677 2.30783L15.4667 2.25883C15.0627 2.06183 14.6357 1.96583 14.1627 1.96583C13.6897 1.96583 13.2627 2.06183 12.8587 2.25883L12.7577 2.30783L12.6807 2.22483C12.0647 1.56183 10.6837 0.449829 8.36069 0.449829C7.80169 0.449829 7.34669 0.904829 7.34669 1.46383C7.34669 2.02283 7.80169 2.47783 8.36069 2.47783C10.3477 2.47783 11.2277 3.60583 11.3837 3.83183L11.4277 3.89583L11.4017 3.96883C11.2267 4.45583 11.1657 4.92483 11.1457 5.23283L11.1427 5.27983L11.1127 5.31683C10.7527 5.77283 10.2257 6.18383 9.50169 6.57283L9.43069 6.61083L9.35969 6.57283C9.33269 6.55883 9.30569 6.54583 9.27769 6.53383L6.13169 5.21683C5.13669 4.80083 4.30269 4.05183 3.78369 3.10683L2.83569 1.38283C2.65769 1.05883 2.31669 0.857829 1.94569 0.857829C1.77669 0.857829 1.60769 0.900829 1.45769 0.982829C0.967688 1.25283 0.788688 1.87083 1.05769 2.36083L2.00669 4.08483C2.74569 5.42883 3.93269 6.49583 5.34769 7.08883L6.38369 7.52183L6.74769 7.67483L6.37469 7.80483C6.20069 7.86583 6.04469 7.92383 5.90869 7.98083C5.29969 8.24083 4.97869 8.61983 4.95569 9.10983C4.95569 9.44983 5.01469 9.86183 5.11269 10.2048C5.22969 10.6148 5.33969 11.0358 5.43969 11.4578L5.48369 11.6448H5.29169C3.92469 11.6448 2.61269 12.1968 1.67069 13.1598L0.288688 14.5738C-0.102312 14.9738 -0.0953123 15.6168 0.304688 16.0088C0.495688 16.1948 0.747688 16.2978 1.01369 16.2978C1.28969 16.2978 1.54669 16.1888 1.73969 15.9918L3.12169 14.5788C3.68369 14.0038 4.46769 13.6738 5.27269 13.6738H5.73069H5.86269L5.88069 13.8038C6.04069 14.9398 6.12169 16.0778 6.12169 17.1858V17.6578V17.7208L6.07769 17.7648L4.04669 19.8138C3.05369 20.8148 2.50669 22.1438 2.50669 23.5538V24.4748C2.50669 25.3488 2.14969 26.2008 1.52769 26.8138L0.826688 27.5048C0.427688 27.8978 0.423688 28.5408 0.816688 28.9398C1.00869 29.1348 1.26469 29.2418 1.53869 29.2418C1.80669 29.2418 2.05969 29.1378 2.25069 28.9498L2.95169 28.2598C3.95869 27.2678 4.53569 25.8878 4.53569 24.4748V23.5538C4.53569 22.6818 4.87369 21.8608 5.48769 21.2418L6.01569 20.7098L6.22069 20.5028L6.27269 20.7888C6.68269 23.0488 7.95969 25.2498 9.96569 27.1558C11.8167 28.9148 13.6577 29.8518 13.7357 29.8908C13.8757 29.9628 14.0337 29.9998 14.1917 29.9998C14.3497 29.9998 14.5077 29.9628 14.6487 29.8908C14.7097 29.8608 16.1547 29.1248 17.7677 27.7418C18.1927 27.3788 18.2407 26.7368 17.8777 26.3118C17.6847 26.0868 17.4037 25.9578 17.1067 25.9578C16.8647 25.9578 16.6307 26.0448 16.4467 26.2018C15.5967 26.9308 14.7947 27.4598 14.2717 27.7758L14.1927 27.8228L14.1147 27.7748C12.7157 26.9288 8.15069 23.8018 8.15069 19.1318V17.1858C8.15069 15.3388 7.94569 13.4448 7.54069 11.5568L7.46769 11.2198L7.76569 11.3948L13.0447 14.5018L13.1187 14.5458V14.6328V23.6208C13.1187 24.1798 13.5737 24.6358 14.1337 24.6358C14.6927 24.6358 15.1477 24.1798 15.1477 23.6208V14.6998V14.6128L15.2217 14.5688L20.5857 11.3888L20.8807 11.2138L20.8117 11.5498C20.4277 13.4218 20.2327 15.2498 20.2327 16.9848V19.1318C20.2327 20.1778 20.0077 21.2168 19.5617 22.2178C19.3347 22.7288 19.5657 23.3298 20.0767 23.5568C20.2077 23.6158 20.3457 23.6448 20.4877 23.6448C20.8887 23.6448 21.2537 23.4078 21.4157 23.0418C21.7397 22.3118 21.9747 21.5548 22.1127 20.7908L22.1637 20.5038L22.3687 20.7108L22.8957 21.2418C23.5097 21.8608 23.8477 22.6818 23.8477 23.5538V24.4748C23.8477 25.8878 24.4247 27.2678 25.4317 28.2598L26.1327 28.9498C26.3237 29.1378 26.5767 29.2418 26.8447 29.2418C27.1187 29.2418 27.3757 29.1348 27.5677 28.9398C27.9597 28.5408 27.9547 27.8978 27.5567 27.5048L26.8557 26.8138C26.2337 26.2008 25.8767 25.3488 25.8767 24.4748V23.5538C25.8767 22.1438 25.3297 20.8148 24.3367 19.8138L22.3057 17.7648L22.2617 17.7208V17.6578V16.9848C22.2617 15.9638 22.3367 14.8938 22.4837 13.8048L22.5017 13.6738H22.6337H23.0217C23.8247 13.6738 24.5797 13.9868 25.1487 14.5538L26.5937 15.9998C26.7857 16.1918 27.0407 16.2978 27.3117 16.2978C27.5817 16.2978 27.8367 16.1918 28.0287 15.9998C28.2197 15.8088 28.3257 15.5538 28.3257 15.2828C28.3257 15.0118 28.2197 14.7578 28.0287 14.5658Z" fill="#D74745"/>
    </g>
    <path fill-rule="evenodd" clip-rule="evenodd" d="M19.1102 25.7955C19.5672 25.7955 19.9382 25.4335 19.9382 24.9855C19.9382 24.5395 19.5672 24.1765 19.1102 24.1765C18.6532 24.1765 18.2822 24.5395 18.2822 24.9855C18.2822 25.4335 18.6532 25.7955 19.1102 25.7955Z" fill="#D74745"/>
</svg>
