<svg width="34" height="30" viewBox="0 0 34 30" fill="none" xmlns="http://www.w3.org/2000/svg">
    <path fill-rule="evenodd" clip-rule="evenodd" d="M16.9344 9.54785C16.4894 9.54785 16.1284 9.90885 16.1284 10.3539C16.1284 10.7989 16.4894 11.1609 16.9344 11.1609C17.3794 11.1609 17.7414 10.7989 17.7414 10.3539C17.7414 9.90885 17.3794 9.54785 16.9344 9.54785Z" fill="#D74745"/>
    <mask id="mask0" mask-type="alpha" maskUnits="userSpaceOnUse" x="0" y="1" width="34" height="29">
        <path fill-rule="evenodd" clip-rule="evenodd" d="M0 1.00024H33.8686V29.3278H0V1.00024Z" fill="white"/>
    </mask>
    <g mask="url(#mask0)">
        <path fill-rule="evenodd" clip-rule="evenodd" d="M25.8605 9.54776L28.3385 3.63476L31.6805 9.54776H25.8605ZM19.6735 24.3118L25.1855 11.1608H31.2765L19.6735 24.3118ZM17.0285 26.4508L10.5095 11.1608H13.7085C14.1535 11.1608 14.5155 10.7988 14.5155 10.3538C14.5155 9.90876 14.1535 9.54776 13.7085 9.54776H11.0795L16.9375 3.01076L22.8585 9.54776H20.1605C19.7145 9.54776 19.3535 9.90876 19.3535 10.3538C19.3535 10.7988 19.7145 11.1608 20.1605 11.1608H23.4365L17.0285 26.4508ZM2.60851 11.1608H8.75651L14.3705 24.3288L2.60851 11.1608ZM5.54251 3.62376L8.06851 9.54776H2.18951L5.54251 3.62376ZM15.1285 2.61276L9.52851 8.86076L6.86551 2.61276H15.1285ZM27.0185 2.61276L24.4035 8.85176L18.7525 2.61276H27.0185ZM33.8685 10.3488C33.8685 10.3388 33.8685 10.3288 33.8675 10.3188C33.8675 10.3088 33.8665 10.2978 33.8655 10.2878C33.8645 10.2808 33.8645 10.2748 33.8645 10.2678C33.8635 10.2588 33.8615 10.2498 33.8605 10.2408C33.8595 10.2308 33.8575 10.2208 33.8555 10.2108C33.8545 10.2028 33.8535 10.1958 33.8515 10.1878C33.8505 10.1808 33.8475 10.1728 33.8465 10.1658C33.8435 10.1548 33.8405 10.1448 33.8385 10.1348C33.8355 10.1268 33.8335 10.1178 33.8315 10.1098C33.8295 10.1038 33.8265 10.0978 33.8245 10.0928C33.8205 10.0818 33.8175 10.0708 33.8125 10.0598C33.8095 10.0508 33.8065 10.0428 33.8025 10.0338C33.8005 10.0298 33.7985 10.0258 33.7965 10.0208C33.7915 10.0098 33.7855 9.99876 33.7795 9.98676C33.7765 9.97876 33.7715 9.96976 33.7665 9.96176C33.7665 9.96076 33.7655 9.95876 33.7645 9.95776L28.9325 1.40976C28.9305 1.40476 28.9275 1.40176 28.9245 1.39776C28.9115 1.37476 28.8965 1.35176 28.8815 1.33076C28.8765 1.32476 28.8725 1.31876 28.8685 1.31376C28.8485 1.28776 28.8265 1.26276 28.8035 1.23876L28.8025 1.23776C28.7805 1.21576 28.7565 1.19476 28.7315 1.17476C28.7255 1.17076 28.7195 1.16576 28.7135 1.16076C28.6935 1.14676 28.6725 1.13176 28.6505 1.11876C28.6435 1.11476 28.6365 1.10976 28.6295 1.10576C28.6025 1.09076 28.5735 1.07576 28.5445 1.06376C28.5435 1.06376 28.5435 1.06276 28.5425 1.06276C28.5125 1.04976 28.4825 1.03976 28.4515 1.03076C28.4435 1.02876 28.4345 1.02676 28.4255 1.02476C28.4025 1.01876 28.3775 1.01376 28.3535 1.00976C28.3445 1.00876 28.3365 1.00776 28.3275 1.00576C28.2955 1.00276 28.2635 0.999756 28.2315 0.999756H28.2305H28.2265H16.9345H16.9325H5.64651C5.61251 0.999756 5.57951 1.00276 5.54551 1.00676C5.53751 1.00776 5.52951 1.00876 5.52251 1.00976C5.49851 1.01376 5.47351 1.01876 5.44951 1.02476C5.44051 1.02676 5.43151 1.02876 5.42251 1.03176C5.39651 1.03976 5.36951 1.04876 5.34351 1.05876C5.33951 1.06076 5.33551 1.06176 5.33051 1.06376C5.33051 1.06376 5.32951 1.06476 5.32851 1.06476C5.29951 1.07676 5.27151 1.09076 5.24451 1.10676C5.23851 1.11076 5.23251 1.11476 5.22551 1.11876C5.20351 1.13176 5.18251 1.14676 5.16251 1.16076C5.15551 1.16676 5.14951 1.17176 5.14251 1.17576C5.12051 1.19376 5.09951 1.21276 5.07851 1.23276C5.07651 1.23476 5.07351 1.23776 5.07051 1.24076C5.04851 1.26376 5.02651 1.28876 5.00651 1.31476C5.00251 1.31976 4.99951 1.32476 4.99551 1.32976C4.97951 1.35176 4.96451 1.37376 4.95151 1.39676C4.94851 1.40176 4.94551 1.40476 4.94351 1.40876L0.114512 9.93976C0.114512 9.93976 0.114512 9.93976 0.113512 9.93976L0.104512 9.95676C0.103512 9.95876 0.103512 9.95976 0.102512 9.96176C0.0975117 9.96976 0.0925117 9.97976 0.0885117 9.98876C0.0825117 9.99976 0.0765117 10.0108 0.0715117 10.0228C0.0695117 10.0268 0.0685117 10.0298 0.0665117 10.0338C0.0625117 10.0428 0.0595117 10.0518 0.0555117 10.0618C0.0505117 10.0728 0.0475117 10.0838 0.0435117 10.0948C0.0415117 10.0998 0.0395117 10.1048 0.0375117 10.1098C0.0355117 10.1178 0.0325117 10.1278 0.0305117 10.1358C0.0275117 10.1468 0.0245117 10.1578 0.0225117 10.1688C0.0205117 10.1748 0.0185117 10.1818 0.0175117 10.1878C0.0155117 10.1958 0.0145117 10.2048 0.0125117 10.2128C0.0115117 10.2228 0.00951172 10.2338 0.00751172 10.2438C0.00651172 10.2518 0.00551172 10.2598 0.00451172 10.2678C0.00451172 10.2748 0.00351172 10.2828 0.00351172 10.2898C0.00251172 10.2998 0.00151172 10.3108 0.00151172 10.3218C0.000511719 10.3308 0.000511719 10.3398 0.000511719 10.3488C0.000511719 10.3498 -0.000488281 10.3518 -0.000488281 10.3538C-0.000488281 10.3588 0.000511719 10.3638 0.000511719 10.3688C0.000511719 10.3798 0.00151172 10.3898 0.00151172 10.4008C0.00251172 10.4098 0.00251172 10.4188 0.00351172 10.4268C0.00451172 10.4348 0.00551172 10.4418 0.00651172 10.4488C0.00651172 10.4598 0.00851172 10.4698 0.0105117 10.4798C0.0115117 10.4878 0.0125117 10.4958 0.0145117 10.5038C0.0155117 10.5118 0.0175117 10.5198 0.0195117 10.5278C0.0215117 10.5378 0.0245117 10.5478 0.0265117 10.5568C0.0285117 10.5648 0.0295117 10.5708 0.0325117 10.5788C0.0345117 10.5878 0.0375117 10.5958 0.0395117 10.6048C0.0435117 10.6128 0.0465117 10.6228 0.0495117 10.6308C0.0515117 10.6388 0.0545117 10.6458 0.0575117 10.6518C0.0605117 10.6608 0.0645117 10.6698 0.0685117 10.6778C0.0715117 10.6858 0.0755117 10.6938 0.0795117 10.7018C0.0835117 10.7098 0.0865117 10.7168 0.0905117 10.7248C0.0945117 10.7328 0.0985117 10.7398 0.103512 10.7478C0.107512 10.7558 0.111512 10.7628 0.115512 10.7698C0.120512 10.7778 0.125512 10.7858 0.131512 10.7938C0.135512 10.8008 0.140512 10.8078 0.145512 10.8158C0.150512 10.8218 0.154512 10.8278 0.158512 10.8338C0.164512 10.8418 0.171512 10.8498 0.177512 10.8578C0.182512 10.8648 0.189512 10.8718 0.194512 10.8788C0.198512 10.8828 0.200512 10.8868 0.204512 10.8908L16.4335 29.0588C16.4535 29.0818 16.4745 29.1028 16.4965 29.1218C16.5005 29.1248 16.5035 29.1278 16.5065 29.1308C16.5295 29.1508 16.5545 29.1688 16.5795 29.1868L16.6045 29.2028C16.6285 29.2168 16.6525 29.2308 16.6765 29.2438C16.6835 29.2468 16.6905 29.2508 16.6975 29.2538C16.7285 29.2678 16.7605 29.2808 16.7945 29.2908C16.8015 29.2938 16.8095 29.2958 16.8185 29.2978C16.8445 29.3048 16.8715 29.3108 16.8985 29.3158C16.9085 29.3178 16.9185 29.3188 16.9285 29.3198C16.9635 29.3248 16.9985 29.3278 17.0345 29.3278H17.0375C17.0735 29.3278 17.1095 29.3248 17.1445 29.3198C17.1545 29.3188 17.1645 29.3168 17.1735 29.3148C17.2015 29.3098 17.2285 29.3038 17.2555 29.2968C17.2635 29.2948 17.2715 29.2928 17.2785 29.2898C17.3125 29.2788 17.3445 29.2668 17.3755 29.2528C17.3825 29.2488 17.3885 29.2448 17.3955 29.2418C17.4205 29.2298 17.4445 29.2158 17.4685 29.2008C17.4765 29.1948 17.4855 29.1898 17.4935 29.1838C17.5185 29.1668 17.5425 29.1478 17.5655 29.1278C17.5685 29.1248 17.5725 29.1218 17.5765 29.1188C17.5985 29.0988 17.6195 29.0778 17.6395 29.0548L33.6675 10.8878C33.6705 10.8838 33.6725 10.8808 33.6755 10.8778C33.6805 10.8718 33.6865 10.8648 33.6915 10.8588C33.6975 10.8498 33.7045 10.8408 33.7115 10.8328C33.7155 10.8268 33.7205 10.8198 33.7245 10.8138C33.7295 10.8078 33.7335 10.8008 33.7375 10.7948C33.7435 10.7858 33.7485 10.7768 33.7545 10.7688C33.7585 10.7608 33.7625 10.7538 33.7665 10.7468C33.7705 10.7398 33.7745 10.7328 33.7775 10.7258C33.7815 10.7178 33.7865 10.7098 33.7895 10.7008C33.7945 10.6928 33.7975 10.6848 33.8015 10.6758C33.8045 10.6688 33.8075 10.6608 33.8115 10.6528C33.8145 10.6458 33.8175 10.6378 33.8195 10.6308C33.8225 10.6208 33.8265 10.6118 33.8295 10.6028C33.8325 10.5948 33.8345 10.5878 33.8365 10.5798L33.8425 10.5558C33.8455 10.5468 33.8475 10.5368 33.8495 10.5268C33.8515 10.5188 33.8535 10.5118 33.8545 10.5048C33.8565 10.4958 33.8575 10.4868 33.8585 10.4778C33.8605 10.4678 33.8615 10.4578 33.8625 10.4478C33.8635 10.4418 33.8645 10.4348 33.8645 10.4278C33.8655 10.4178 33.8665 10.4088 33.8665 10.3988L33.8685 10.3678C33.8685 10.3628 33.8685 10.3588 33.8685 10.3548V10.3488Z" fill="#D74745"/>
    </g>
</svg>
