<svg width="31" height="31" viewBox="0 0 31 31" fill="none" xmlns="http://www.w3.org/2000/svg">
    <path fill-rule="evenodd" clip-rule="evenodd" d="M16.552 17.8461C16.552 17.4401 16.181 17.1121 15.724 17.1121C15.267 17.1121 14.897 17.4401 14.897 17.8461C14.897 20.2771 12.669 22.2541 9.931 22.2541C9.474 22.2541 9.104 22.5831 9.104 22.9891C9.104 23.3941 9.474 23.7231 9.931 23.7231C13.582 23.7231 16.552 21.0871 16.552 17.8461Z" fill="#D74745"/>
    <path fill-rule="evenodd" clip-rule="evenodd" d="M28.8394 12.9939C28.8394 14.5049 27.4414 15.7339 25.7214 15.7339C24.0014 15.7339 22.6024 14.5049 22.6024 12.9939C22.6024 12.0269 24.1374 9.49388 25.7214 7.31388C27.3044 9.49388 28.8394 12.0269 28.8394 12.9939ZM26.4684 5.33688C26.1254 4.89488 25.3174 4.89388 24.9734 5.33588C24.2714 6.23888 20.7654 10.8479 20.7654 12.9939C20.7654 15.4349 22.9884 17.4199 25.7214 17.4199C28.4534 17.4199 30.6764 15.4349 30.6764 12.9939C30.6764 10.8479 27.1714 6.23888 26.4684 5.33688Z" fill="#D74745"/>
    <path fill-rule="evenodd" clip-rule="evenodd" d="M24.3214 26.9094C24.3214 28.0604 23.2564 28.9964 21.9464 28.9964C20.6354 28.9964 19.5704 28.0604 19.5704 26.9094C19.5704 26.1734 20.7394 24.2424 21.9464 22.5824C23.1524 24.2424 24.3214 26.1724 24.3214 26.9094ZM21.3764 21.0764C20.8414 21.7634 18.1704 25.2744 18.1704 26.9094C18.1704 28.7684 19.8634 30.2814 21.9464 30.2814C24.0274 30.2814 25.7214 28.7684 25.7214 26.9094C25.7214 25.2744 23.0504 21.7634 22.5154 21.0764C22.2544 20.7394 21.6384 20.7394 21.3764 21.0764Z" fill="#D74745"/>
    <mask id="mask0" mask-type="alpha" maskUnits="userSpaceOnUse" x="0" y="16" width="2" height="2">
        <path fill-rule="evenodd" clip-rule="evenodd" d="M0 16.377H1.6558V17.846H0V16.377Z" fill="white"/>
    </mask>
    <g mask="url(#mask0)">
        <path fill-rule="evenodd" clip-rule="evenodd" d="M0.827756 17.846C1.28476 17.846 1.65576 17.517 1.65576 17.112C1.65576 16.706 1.28476 16.377 0.827756 16.377C0.369756 16.377 -0.000244141 16.706 -0.000244141 17.112C-0.000244141 17.517 0.369756 17.846 0.827756 17.846Z" fill="#D74745"/>
    </g>
    <path fill-rule="evenodd" clip-rule="evenodd" d="M10.8049 0.429C10.6109 0.16 10.2849 0 9.93189 0C9.57889 0 9.25289 0.16 9.05789 0.429C8.81889 0.762 3.17089 8.65 0.823888 14.179C0.725888 14.407 0.728888 14.657 0.830888 14.883C0.941888 15.129 1.16289 15.323 1.43589 15.414C1.96889 15.592 2.56589 15.346 2.76989 14.866C4.50689 10.776 8.23089 5.185 9.93389 2.715C13.6929 8.139 17.9919 15.314 17.9919 18.067C17.9919 21.998 14.3759 25.196 9.93189 25.196C6.32989 25.196 3.13789 23.056 2.16889 19.991C2.01289 19.495 1.43789 19.202 0.889888 19.338C0.607888 19.408 0.369888 19.585 0.236888 19.823C0.115888 20.038 0.0898884 20.285 0.162888 20.519C1.38789 24.392 5.40589 27.098 9.93189 27.098C15.5279 27.098 20.0789 23.046 20.0789 18.067C20.0789 13.354 11.1839 0.954 10.8049 0.429Z" fill="#D74745"/>
</svg>
