<svg width="31" height="30" viewBox="0 0 31 30" fill="none" xmlns="http://www.w3.org/2000/svg">
    <path fill-rule="evenodd" clip-rule="evenodd" d="M25.6257 24.6167C26.0567 24.6167 26.4067 24.9667 26.4067 25.3977C26.4067 25.8277 26.0567 26.1777 25.6257 26.1777C25.1957 26.1777 24.8457 25.8277 24.8457 25.3977C24.8457 24.9667 25.1957 24.6167 25.6257 24.6167ZM25.6257 27.3127C26.6827 27.3127 27.5417 26.4537 27.5417 25.3977C27.5417 24.3407 26.6827 23.4817 25.6257 23.4817C24.5697 23.4817 23.7097 24.3407 23.7097 25.3977C23.7097 26.4537 24.5697 27.3127 25.6257 27.3127Z" fill="#D74745"/>
    <mask id="mask0" mask-type="alpha" maskUnits="userSpaceOnUse" x="0" y="0" width="31" height="30">
        <path fill-rule="evenodd" clip-rule="evenodd" d="M0.949951 0.671997H30.088V29.8101H0.949951V0.671997Z" fill="white"/>
    </mask>
    <g mask="url(#mask0)">
        <path fill-rule="evenodd" clip-rule="evenodd" d="M28.6385 22.1621L15.0085 9.86813C15.7395 7.37213 15.0465 4.62113 13.1975 2.77113C11.1965 0.770128 8.19449 0.133128 5.55049 1.14713C5.14849 1.30113 4.89849 1.70913 4.94349 2.14013C4.96549 2.35513 5.06649 2.56113 5.22549 2.72113L8.61949 6.13213L6.39349 8.34213L2.99149 4.93913C2.76249 4.71013 2.43649 4.61413 2.11749 4.68113C1.80049 4.74813 1.54149 4.96913 1.42549 5.27213C0.411488 7.91613 1.04949 10.9181 3.04949 12.9181C4.88349 14.7521 7.52249 15.4461 10.0085 14.7671L14.9015 20.1411C15.0755 20.3331 15.3245 20.4471 15.5835 20.4531C15.8375 20.4721 16.0965 20.3591 16.2805 20.1761C16.6435 19.8151 16.6585 19.2361 16.3125 18.8571L11.0045 13.0281C10.7405 12.7401 10.3325 12.6421 9.96749 12.7781C8.03849 13.4981 5.85249 13.0231 4.39949 11.5701C3.32649 10.4971 2.77849 9.00713 2.86849 7.51613L5.04349 9.69113C5.42449 10.0721 5.93249 10.2711 6.46949 10.2521C6.95649 10.2361 7.42249 10.0291 7.78049 9.67013L9.96949 7.48213C10.3315 7.11913 10.5315 6.63713 10.5315 6.12313C10.5315 5.61113 10.3315 5.12813 9.96949 4.76613L7.79449 2.59113C9.28849 2.50213 10.7755 3.04813 11.8475 4.12013C13.3385 5.61213 13.7965 7.84113 13.0145 9.80013C12.8675 10.1691 12.9675 10.5961 13.2625 10.8621L27.3615 23.5791C27.8705 24.0391 28.1615 24.6701 28.1795 25.3571C28.1975 26.0441 27.9395 26.6891 27.4535 27.1751C26.9705 27.6581 26.3315 27.9251 25.6435 27.9011C24.9605 27.8861 24.3295 27.5991 23.8685 27.0951L18.8205 21.5751C18.6295 21.3661 18.3555 21.2541 18.0755 21.2661C17.7915 21.2781 17.5315 21.4141 17.3595 21.6401C17.0775 22.0071 17.1005 22.5211 17.4125 22.8641L22.4605 28.3831C23.2765 29.2751 24.3915 29.7821 25.5975 29.8081L25.7025 29.8101C26.8725 29.8101 27.9735 29.3531 28.8025 28.5241C29.6615 27.6651 30.1175 26.5231 30.0865 25.3081C30.0555 24.0931 29.5415 22.9761 28.6385 22.1621Z" fill="#D74745"/>
    </g>
</svg>
