<svg fill="none" height="143" viewBox="0 0 143 143" width="143" xmlns="http://www.w3.org/2000/svg">
    <path clip-rule="evenodd" d="M143 71.5C143 110.988 110.989 143 71.4997 143C32.0115 143 0 110.988 0 71.5C0 32.012 32.0115 0 71.4997 0C110.989 0 143 32.012 143 71.5Z"
        fill="white"
        fill-rule="evenodd" />
    <path clip-rule="evenodd" d="M72.0815 60.8586C71.7372 60.6772 71.4622 60.0706 71.6485 59.682C71.9558 59.0408 72.7465 57.8675 74.1719 56.5335C80.6678 50.4557 95.4184 40.2667 107.904 48.9615C113.725 53.0142 115.34 60.5025 115.217 66.6102C114.939 80.2154 104.713 93.4864 104.713 93.4864C104.713 93.4864 95.1575 106.875 85.4013 111.486C72.7626 117.459 64.335 110.852 64.335 110.852C64.335 110.852 50.8169 104.521 62.1169 84.1924C69.5177 70.8788 87.095 54.5709 87.095 54.5709C87.095 54.5709 85.2379 55.4087 82.9579 56.7055C80.0747 58.3452 76.4984 60.5656 74.9546 61.0519C73.6999 61.4479 72.7176 61.1928 72.0815 60.8586Z"
        fill="#D74745"
        fill-rule="evenodd" />
    <path clip-rule="evenodd" d="M59.0684 49.7546C59.2873 49.7367 59.5586 49.4647 59.5418 49.2013C59.5142 48.7684 59.3425 47.9205 58.8712 46.8297C56.7213 41.8581 51.0857 32.5908 42.7003 34.4349C38.7911 35.2953 36.3779 39.094 35.1687 42.5412C32.4748 50.2193 35.0865 60.1167 35.0865 60.1167C35.0865 60.1167 37.3206 69.9181 41.4924 74.8566C46.8964 81.2552 52.7097 79.5965 52.7097 79.5965C52.7097 79.5965 61.1449 79.3244 59.4421 65.2186C58.3264 55.9805 52.4801 42.6061 52.4801 42.6061C52.4801 42.6061 53.2827 43.5241 54.2119 44.8009C55.3868 46.4153 56.8054 48.5228 57.5158 49.1682C58.0935 49.693 58.6638 49.7884 59.0684 49.7546Z"
        fill="#D74745"
        fill-rule="evenodd" />
</svg>
